<svg width="256" height="256" viewBox="0 0 41 41" xmlns="http://www.w3.org/2000/svg">
    <g transform="scale(1, 1) translate(-11.5, -13)">
        <path

                fill-opacity="0.2"
                fill="#231F20"
                d="M32.096,39.682c-1.556,1.556 -6.087,12.54 -6.087,12.54c-0.665,1.208 0.33,2.085 2.593,0.936l8.131,-4.435c4.381,-2.435 5.228,-3.071 5.17,-8.028l-0.815,-5.853c-0.279,-2.005 -1.78,-2.373 -3.336,-0.817L32.096,39.682z"
                stroke-opacity="0.2"/>
        <path
                fill-opacity="0.2"
                fill="#231F20"
                d="M27.072,34.658c-1.556,1.556 -12.54,6.087 -12.54,6.087c-1.208,0.665 -2.085,-0.33 -0.936,-2.593l4.435,-8.131c2.435,-4.381 3.071,-5.228 8.028,-5.17l5.853,0.815c2.005,0.279 2.373,1.78 0.817,3.336L27.072,34.658z"
                stroke-opacity="0.2"/>
        <path
                fill="#C75C5C"
                d="M32.096,37.682c-1.556,1.556 -6.087,12.54 -6.087,12.54c-0.665,1.208 0.33,2.085 2.593,0.936l8.131,-4.435c4.381,-2.435 5.228,-3.071 5.17,-8.028l-0.815,-5.853c-0.279,-2.005 -1.78,-2.373 -3.336,-0.817L32.096,37.682z"/>
        <path
                fill="#C75C5C"
                d="M27.072,32.658c-1.556,1.556 -12.54,6.087 -12.54,6.087c-1.208,0.665 -2.085,-0.33 -0.936,-2.593l4.435,-8.131c2.435,-4.381 3.071,-5.228 8.028,-5.17l5.853,0.815c2.005,0.279 2.373,1.78 0.817,3.336L27.072,32.658z"/>
        <path
                fill-opacity="0.2"
                fill="#231F20"
                d="M21.247,39.545c5.074,-5.074 9.337,-3.526 9.337,-3.526s1.549,4.263 -3.526,9.337s-13.291,8.76 -13.931,8.12C12.507,52.855 16.172,44.619 21.247,39.545z"
                stroke-opacity="0.2"/>
        <path
                fill="#E0995E"
                d="M21.247,37.545c5.074,-5.074 9.337,-3.526 9.337,-3.526s1.549,4.263 -3.526,9.337s-13.291,8.76 -13.931,8.12C12.507,50.855 16.172,42.619 21.247,37.545z"/>
        <path
                fill="#F5CF87"
                d="M25.489,33.302c5.074,-5.074 9.337,-3.526 9.337,-3.526s1.549,4.263 -3.526,9.337s-13.291,8.76 -13.931,8.12C16.749,46.613 20.415,38.376 25.489,33.302z"/>
        <path
                fill-opacity="0.2"
                fill="#231F20"
                d="M43.634,37.078c-7.81,7.81 -19.783,5.673 -19.783,5.673s-2.137,-11.972 5.673,-19.783s19.643,-8.641 21.197,-7.087C52.228,17.388 51.445,29.268 43.634,37.078z"
                stroke-opacity="0.2"/>
        <path
                fill="#E0E0D1"
                d="M43.634,35.078c-7.81,7.81 -19.783,5.673 -19.783,5.673s-2.137,-11.972 5.673,-19.783s19.643,-8.641 21.197,-7.087C52.228,15.388 51.445,27.268 43.634,35.078z"/>
        <path
                fill-opacity="0.2"
                fill="#231F20"
                d="M21.023,46.994c-0.781,0.781 -1.34,1.488 -2.121,0.707l0,0c-0.781,-0.781 -0.074,-1.34 0.707,-2.121l9.899,-12.728c0.781,-0.781 4.169,-1.488 4.95,-0.707l0,0c0.781,0.781 0.074,4.169 -0.707,4.95L21.023,46.994z"
                stroke-opacity="0.2"/>
        <path
                fill="#C75C5C"
                d="M21.023,44.994c-0.781,0.781 -1.34,1.488 -2.121,0.707l0,0c-0.781,-0.781 -0.074,-1.34 0.707,-2.121l9.899,-12.728c0.781,-0.781 4.169,-1.488 4.95,-0.707l0,0c0.781,0.781 0.074,4.169 -0.707,4.95L21.023,44.994z"/>
        <path
                fill-opacity="0.2"
                fill="#231F20"
                d="M36.7754,29.9788a4,4 0,1 0,5.6568 -5.6568a4,4 0,1 0,-5.6568 5.6568z"
                stroke-opacity="0.2"/>
        <path
                fill-opacity="0.2"
                fill="#231F20"
                d="M43.8465,22.9075a2,2 0,1 0,2.8284 -2.8284a2,2 0,1 0,-2.8284 2.8284z"
                stroke-opacity="0.2"/>
        <path
                fill="#4F5D73"
                d="M36.7754,27.9788a4,4 0,1 0,5.6568 -5.6568a4,4 0,1 0,-5.6568 5.6568z"/>
        <path
                fill="#4F5D73"
                d="M43.8465,20.9075a2,2 0,1 0,2.8284 -2.8284a2,2 0,1 0,-2.8284 2.8284z"/>
    </g>
</svg>